<?xml version="1.0" encoding="UTF-8"?>
<!DOCTYPE svg PUBLIC "-//W3C//DTD SVG 1.1//EN" "http://www.w3.org/Graphics/SVG/1.1/DTD/svg11.dtd">
<!-- Creator: CorelDRAW 2020 (64-Bit) -->
<svg xmlns="http://www.w3.org/2000/svg" xml:space="preserve" width="32px" height="28px" version="1.1" style="shape-rendering:geometricPrecision; text-rendering:geometricPrecision; image-rendering:optimizeQuality; fill-rule:evenodd; clip-rule:evenodd"
viewBox="0 0 2.024 1.771"
 xmlns:xlink="http://www.w3.org/1999/xlink"
 xmlns:xodm="http://www.corel.com/coreldraw/odm/2003">
 <defs>
  <style type="text/css">
   <![CDATA[
    .fil0 {fill:white}
    .fil1 {fill:white;fill-opacity:0.309804}
   ]]>
  </style>
 </defs>
 <g id="Слой_x0020_1">
  <metadata id="CorelCorpID_0Corel-Layer"/>
  <path class="fil0" d="M0 1.265l0.126 0 0.127 0 0 -0.38 0.126 0 0 -0.379 0.127 0 0 -0.38 0.253 0 0.126 0 0.124 0 0 0.124 -0.124 0 0 1.268 0.127 0 0 0.126 0 0.127 0.759 0 0 -0.127 0.126 0 0 -0.126 0.127 0 0 -1.265 -0.127 0 0 -0.127 -0.126 0 -0.759 0 0 -0.126 0.759 0 0 0.126 0 0.253 0.126 0 0 1.139 -0.126 0 0 0.126 -0.759 0 -0.127 0 0 -0.126 -0.126 0 0 -0.514 -0.127 0 0 -0.372 0.127 0 0 -0.506 0 -0.126 -0.253 0 0 0.126 -0.127 0 0 0.38 -0.126 0 0 0.379 -0.127 0 0 0.38 0 0.379 0 0.127 0.253 0 0 -0.127 0.127 0 0 -0.253 0.126 0 0 -0.379 -0.126 0 0 0.379 -0.127 0 0 0.253 -0.253 0 -0.126 0 0 -0.379zm1.265 -0.886l0 0.253 0.126 0 0 0.127 -0.126 0 0 0.253 -0.127 0 0 -0.633 0 -0.126 0.253 0 0.127 0 0 0.253 -0.127 0 0 -0.127 -0.126 0zm0.253 0.511l-0.127 0 0 0.122 0.127 0 0 0.379 -0.127 0 0 -0.253 -0.126 0 0 0.253 -0.127 0 0 0.127 0.506 0 0 -0.127 0 -0.632 -0.126 0 0 0.131z"/>
  <path class="fil1" d="M0.759 0.126l-0.253 0 0 0.38 -0.127 0 0 0.379 -0.126 0 0 0.38 -0.127 0 0 0.379 0.253 0 0 -0.253 0.127 0 0 -0.379 0.126 0 0 -0.38 0.127 0 0 -0.506zm1.012 0.253l0 -0.122 0 -0.131 -0.762 0 0 0.124 -0.124 0 0 1.268 0.127 0 0 0.126 0.759 0 0 -0.126 0.126 0 0 -1.139 -0.126 0zm-0.127 0.38l-0.126 0 0 0.126 -0.127 0 0 0.25 -0.126 0 0 0.256 -0.127 0 0 0.127 0.506 0 0 -0.759zm-0.126 -0.253l0 -0.249 -0.38 0 0 0.755 0.127 0 0 -0.253 0.126 0 0 -0.253 0.127 0z"/>
 </g>
</svg>
