<?xml version="1.0" encoding="UTF-8"?>
<!DOCTYPE svg PUBLIC "-//W3C//DTD SVG 1.1//EN" "http://www.w3.org/Graphics/SVG/1.1/DTD/svg11.dtd">
<svg xmlns="http://www.w3.org/2000/svg" xml:space="preserve" width="945px" height="705px" version="1.1" style="shape-rendering:geometricPrecision; text-rendering:geometricPrecision; image-rendering:optimizeQuality; fill-rule:evenodd; clip-rule:evenodd"
viewBox="0 0 463.492 345.97"
 xmlns:xlink="http://www.w3.org/1999/xlink">
 <defs>
  <style type="text/css">
   <![CDATA[
    .fil1 {fill:black;fill-rule:nonzero}
    .fil2 {fill:#009933;fill-rule:nonzero}
    .fil0 {fill:#EBEBEB;fill-rule:nonzero}
    .fil3 {fill:white;fill-rule:nonzero;fill-opacity:0.211765}
   ]]>
  </style>
 </defs>
 <g id="Слой_x0020_1">
  <path class="fil0" d="M0 29.439c80.466,-40.141 160.635,-25.633 241.76,-13.174 73.108,11.229 147.036,20.993 221.732,-16.265l0 158.265c-80.466,40.142 -160.635,25.634 -241.76,13.175 -73.109,-11.229 -147.036,-20.994 -221.732,16.265l0 -158.266z"/>
  <path class="fil1" d="M0 187.705c80.466,-40.141 160.635,-25.634 241.76,-13.175 73.108,11.229 147.036,20.994 221.732,-16.265l0 158.266c-80.466,40.141 -160.635,25.633 -241.76,13.175 -73.109,-11.23 -147.036,-20.994 -221.732,16.264l0 -158.265z"/>
  <path class="fil2" d="M0 134.95c80.466,-40.141 160.635,-25.634 241.76,-13.175 73.108,11.229 147.036,20.994 221.732,-16.265l0 105.511c-80.466,40.141 -160.635,25.633 -241.76,13.174 -73.109,-11.229 -147.036,-20.993 -221.732,16.265l0 -105.51z"/>
  <path class="fil3" d="M0 29.439c80.466,-40.141 160.635,-25.633 241.76,-13.174 73.108,11.229 147.036,20.993 221.732,-16.265l0 316.531c-80.466,40.141 -160.635,25.633 -241.76,13.175 -73.109,-11.23 -147.036,-20.994 -221.732,16.264l0 -316.531m14.72 9.134l0 284.736c144.398,-60.414 287.883,45.238 434.052,-15.911l0 -284.737c-144.398,60.414 -287.883,-45.237 -434.052,15.912z"/>
 </g>
</svg>
