<?xml version="1.0" encoding="UTF-8"?>
<!DOCTYPE svg PUBLIC "-//W3C//DTD SVG 1.1//EN" "http://www.w3.org/Graphics/SVG/1.1/DTD/svg11.dtd">
<!-- Creator: CorelDRAW 2020 (64-Bit) -->
<svg xmlns="http://www.w3.org/2000/svg" xml:space="preserve" width="145px" height="48px" version="1.1" style="shape-rendering:geometricPrecision; text-rendering:geometricPrecision; image-rendering:optimizeQuality; fill-rule:evenodd; clip-rule:evenodd"
viewBox="0 0 72.14 24.031"
 xmlns:xlink="http://www.w3.org/1999/xlink"
 xmlns:xodm="http://www.corel.com/coreldraw/odm/2003">
 <defs>
  <style type="text/css">
   <![CDATA[
    .fil0 {fill:#E6E6E6;fill-rule:nonzero}
   ]]>
  </style>
 </defs>
 <g id="Слой_x0020_1">
  <metadata id="CorelCorpID_0Corel-Layer"/>
  <path class="fil0" d="M5.972 0l0 1.209 -3.255 0c-0.128,0 -0.244,0.04 -0.348,0.119 -0.103,0.08 -0.193,0.186 -0.269,0.317 -0.076,0.132 -0.135,0.286 -0.179,0.461 -0.044,0.176 -0.066,0.359 -0.066,0.551l0 4.392c0,0.183 0.02,0.361 0.06,0.532 0.04,0.172 0.098,0.326 0.173,0.461 0.076,0.136 0.168,0.243 0.276,0.323 0.107,0.08 0.225,0.12 0.353,0.12l1.687 0 0 -3.076 -1.604 0 0 -1.196 3.315 0 0 5.457 -4.176 0c-0.28,0 -0.533,-0.068 -0.76,-0.204 -0.228,-0.135 -0.421,-0.321 -0.581,-0.556 -0.159,-0.236 -0.283,-0.513 -0.371,-0.832 -0.087,-0.319 -0.131,-0.662 -0.131,-1.029l0 -4.392c0,-0.375 0.045,-0.724 0.137,-1.047 0.092,-0.323 0.218,-0.605 0.377,-0.844 0.16,-0.239 0.353,-0.427 0.581,-0.562 0.227,-0.136 0.476,-0.204 0.748,-0.204l4.033 0zm5.325 0c0.75,0 1.299,0.21 1.646,0.628 0.347,0.419 0.52,1.103 0.52,2.053 0,0.486 -0.089,0.915 -0.269,1.286 -0.18,0.371 -0.497,0.648 -0.951,0.832 0.199,0.072 0.377,0.156 0.532,0.251 0.156,0.096 0.287,0.216 0.395,0.359 0.108,0.144 0.192,0.315 0.251,0.515 0.06,0.199 0.09,0.435 0.09,0.706l0 3.04 -1.771 0 0 -2.346c0,-1.229 -0.291,-1.843 -0.874,-1.843l-1.663 0 0 4.189 -1.855 0 0 -9.67 3.949 0zm-2.094 4.284l1.699 0c0.272,0 0.485,-0.137 0.64,-0.412 0.156,-0.276 0.234,-0.645 0.234,-1.107 0,-0.479 -0.078,-0.858 -0.234,-1.137 -0.155,-0.28 -0.368,-0.419 -0.64,-0.419l-1.699 0 0 3.075zm11.501 -4.284l0 1.209 -4.045 0 0 3.016 2.944 0 0 1.184 -2.944 0 0 3.076 4.045 0 0 1.185 -5.924 0 0 -9.67 5.924 0zm7.312 0l0 1.209 -4.045 0 0 3.016 2.944 0 0 1.184 -2.944 0 0 3.076 4.045 0 0 1.185 -5.924 0 0 -9.67 5.924 0zm3.075 0l2.92 7.276 0 -7.276 1.46 0 0 9.67 -2.094 0 -2.681 -6.487 0 6.487 -1.448 0 0 -9.67 1.843 0zm17.162 0c0.271,0 0.518,0.068 0.742,0.204 0.223,0.135 0.414,0.323 0.574,0.562 0.16,0.239 0.285,0.521 0.377,0.844 0.092,0.323 0.138,0.672 0.138,1.047l0 4.392c0,0.367 -0.044,0.71 -0.132,1.029 -0.088,0.319 -0.211,0.596 -0.371,0.832 -0.16,0.235 -0.353,0.421 -0.581,0.556 -0.227,0.136 -0.476,0.204 -0.747,0.204l-4.345 0 0 -9.67 4.345 0zm-2.49 8.485l1.7 0c0.127,0 0.245,-0.04 0.353,-0.12 0.107,-0.08 0.199,-0.187 0.275,-0.323 0.076,-0.135 0.134,-0.289 0.173,-0.461 0.04,-0.171 0.06,-0.349 0.06,-0.532l0 -4.392c0,-0.192 -0.02,-0.375 -0.06,-0.551 -0.039,-0.175 -0.097,-0.329 -0.173,-0.461 -0.076,-0.131 -0.168,-0.237 -0.275,-0.317 -0.108,-0.079 -0.226,-0.119 -0.353,-0.119l-1.7 0 0 7.276zm7.169 -8.485l0 7.049c0,0.191 0.02,0.373 0.06,0.544 0.04,0.172 0.095,0.324 0.167,0.455 0.072,0.132 0.16,0.237 0.264,0.317 0.103,0.08 0.223,0.12 0.358,0.12l1.03 0c0.127,0 0.243,-0.04 0.347,-0.12 0.104,-0.08 0.191,-0.185 0.263,-0.317 0.072,-0.131 0.128,-0.283 0.168,-0.455 0.039,-0.171 0.059,-0.353 0.059,-0.544l0 -7.049 1.796 0 0 7.049c0,0.367 -0.044,0.71 -0.132,1.029 -0.088,0.319 -0.211,0.596 -0.371,0.832 -0.16,0.235 -0.353,0.421 -0.58,0.556 -0.228,0.136 -0.485,0.204 -0.772,0.204l-2.585 0c-0.288,0 -0.545,-0.068 -0.772,-0.204 -0.228,-0.135 -0.421,-0.321 -0.581,-0.556 -0.159,-0.236 -0.281,-0.513 -0.365,-0.832 -0.083,-0.319 -0.125,-0.662 -0.125,-1.029l0 -7.049 1.771 0zm11.548 0l0 1.209 -3.099 0c-0.136,0 -0.255,0.04 -0.359,0.119 -0.104,0.08 -0.194,0.186 -0.27,0.317 -0.075,0.132 -0.133,0.286 -0.173,0.461 -0.04,0.176 -0.06,0.359 -0.06,0.551l0 4.392c0,0.183 0.02,0.361 0.06,0.532 0.04,0.172 0.096,0.326 0.167,0.461 0.072,0.136 0.162,0.243 0.27,0.323 0.108,0.08 0.229,0.12 0.365,0.12l3.099 0 0 1.185 -3.901 0c-0.279,0 -0.531,-0.068 -0.754,-0.204 -0.223,-0.135 -0.415,-0.321 -0.574,-0.556 -0.16,-0.236 -0.284,-0.513 -0.371,-0.832 -0.088,-0.319 -0.132,-0.662 -0.132,-1.029l0 -4.392c0,-0.375 0.044,-0.724 0.132,-1.047 0.087,-0.323 0.213,-0.605 0.377,-0.844 0.163,-0.239 0.357,-0.427 0.58,-0.562 0.223,-0.136 0.471,-0.204 0.742,-0.204l3.901 0zm3.124 0l0 3.686 0.132 0 2.477 -3.686 1.927 0 -2.873 4.236 2.849 5.434 -2.059 0 -2.31 -4.512 -0.143 0.012 0 4.5 -1.879 0 0 -9.67 1.879 0zm-61.836 14.361l0 1.209 -3.147 0c-0.136,0 -0.256,0.036 -0.359,0.107 -0.104,0.072 -0.192,0.172 -0.263,0.3 -0.072,0.127 -0.126,0.273 -0.162,0.436 -0.036,0.164 -0.054,0.338 -0.054,0.521 0,0.415 0.076,0.75 0.227,1.005 0.152,0.256 0.355,0.383 0.611,0.383l1.615 0c0.328,0 0.615,0.068 0.862,0.204 0.247,0.135 0.455,0.323 0.622,0.562 0.168,0.239 0.294,0.525 0.377,0.856 0.084,0.331 0.126,0.692 0.126,1.083 0,0.423 -0.046,0.816 -0.138,1.179 -0.091,0.363 -0.221,0.68 -0.389,0.951 -0.167,0.271 -0.366,0.485 -0.598,0.64 -0.231,0.156 -0.487,0.234 -0.766,0.234l-3.997 0 0 -1.185 3.219 0c0.144,0 0.271,-0.042 0.383,-0.126 0.112,-0.084 0.208,-0.197 0.287,-0.341 0.08,-0.144 0.14,-0.313 0.18,-0.509 0.04,-0.195 0.06,-0.404 0.06,-0.628 0,-0.263 -0.022,-0.486 -0.066,-0.67 -0.044,-0.183 -0.12,-0.329 -0.227,-0.437 -0.108,-0.107 -0.25,-0.185 -0.425,-0.233 -0.176,-0.048 -0.399,-0.072 -0.67,-0.072l-1.042 0c-0.327,0 -0.618,-0.066 -0.873,-0.197 -0.255,-0.132 -0.469,-0.316 -0.64,-0.551 -0.172,-0.235 -0.302,-0.516 -0.389,-0.844 -0.088,-0.327 -0.132,-0.69 -0.132,-1.089 0,-0.383 0.044,-0.744 0.132,-1.083 0.087,-0.339 0.211,-0.634 0.37,-0.885 0.16,-0.252 0.354,-0.451 0.581,-0.599 0.227,-0.147 0.481,-0.221 0.76,-0.221l3.925 0zm5.996 0c0.271,0 0.523,0.068 0.754,0.203 0.231,0.136 0.427,0.324 0.586,0.563 0.16,0.239 0.286,0.52 0.377,0.844 0.092,0.323 0.138,0.672 0.138,1.047l0 4.392c0,0.359 -0.044,0.698 -0.132,1.017 -0.088,0.319 -0.211,0.596 -0.371,0.832 -0.159,0.235 -0.353,0.423 -0.58,0.562 -0.228,0.14 -0.485,0.21 -0.772,0.21l-2.657 0c-0.279,0 -0.532,-0.068 -0.76,-0.204 -0.227,-0.135 -0.423,-0.323 -0.586,-0.562 -0.164,-0.24 -0.289,-0.519 -0.377,-0.838 -0.088,-0.319 -0.132,-0.658 -0.132,-1.017l0 -4.392c0,-0.375 0.044,-0.724 0.132,-1.047 0.088,-0.324 0.213,-0.605 0.377,-0.844 0.163,-0.239 0.359,-0.427 0.586,-0.563 0.228,-0.135 0.481,-0.203 0.76,-0.203l2.657 0zm-2.729 7.049c0,0.183 0.02,0.361 0.06,0.532 0.04,0.172 0.096,0.326 0.168,0.461 0.072,0.136 0.161,0.243 0.269,0.323 0.108,0.08 0.229,0.12 0.365,0.12l1.077 0c0.136,0 0.257,-0.04 0.365,-0.12 0.108,-0.08 0.197,-0.185 0.269,-0.317 0.072,-0.132 0.128,-0.283 0.168,-0.455 0.04,-0.171 0.06,-0.353 0.06,-0.544l0 -4.392c0,-0.2 -0.02,-0.387 -0.06,-0.563 -0.04,-0.175 -0.098,-0.329 -0.174,-0.46 -0.075,-0.132 -0.167,-0.236 -0.275,-0.312 -0.108,-0.075 -0.225,-0.113 -0.353,-0.113l-1.077 0c-0.136,0 -0.255,0.04 -0.359,0.119 -0.104,0.08 -0.193,0.186 -0.269,0.317 -0.076,0.132 -0.134,0.286 -0.174,0.461 -0.04,0.176 -0.06,0.359 -0.06,0.551l0 4.392zm11.728 -7.049l0 1.209 -4.164 0 0 3.159 3.063 0 0 1.185 -3.063 0 0 4.117 -1.891 0 0 -9.67 6.055 0zm7.265 0l0 1.209 -2.011 0 0 8.461 -1.831 0 0 -8.461 -2.106 0 0 -1.209 5.948 0zm2.489 0l0.574 7.635 0.06 0 0.658 -5.122 1.125 0 0.646 5.146 0.072 0 0.563 -7.659 1.711 0 -0.969 9.67 -1.951 0 -0.61 -3.986 -0.06 0 -0.586 3.986 -1.963 0 -0.982 -9.67 1.712 0zm10.22 7.647l-2.13 0 -0.287 2.023 -1.867 0 1.998 -9.67 2.442 0 2.01 9.67 -1.855 0 -0.311 -2.023zm-1.951 -1.208l1.771 0 -0.789 -5.23 -0.192 0 -0.79 5.23zm9.072 -6.439c0.75,0 1.298,0.209 1.645,0.628 0.347,0.419 0.521,1.103 0.521,2.053 0,0.486 -0.09,0.915 -0.269,1.286 -0.18,0.371 -0.497,0.648 -0.952,0.832 0.2,0.072 0.377,0.155 0.533,0.251 0.155,0.096 0.287,0.216 0.395,0.359 0.107,0.144 0.191,0.315 0.251,0.515 0.06,0.199 0.09,0.435 0.09,0.706l0 3.04 -1.771 0 0 -2.346c0,-1.229 -0.292,-1.843 -0.874,-1.843l-1.664 0 0 4.189 -1.855 0 0 -9.67 3.95 0zm-2.095 4.284l1.7 0c0.271,0 0.484,-0.137 0.64,-0.413 0.156,-0.275 0.233,-0.644 0.233,-1.107 0,-0.478 -0.077,-0.857 -0.233,-1.136 -0.156,-0.28 -0.369,-0.419 -0.64,-0.419l-1.7 0 0 3.075zm11.501 -4.284l0 1.209 -4.045 0 0 3.016 2.944 0 0 1.184 -2.944 0 0 3.076 4.045 0 0 1.185 -5.924 0 0 -9.67 5.924 0z"/>
 </g>
</svg>
